<svg width="32" height="32" viewBox="0 0 32 32" fill="none" xmlns="http://www.w3.org/2000/svg">
  <defs>
    <linearGradient id="cubeGradient" x1="0%" y1="0%" x2="100%" y2="100%">
      <stop offset="0%" stop-color="#3B82F6" stop-opacity="0.8"/>
      <stop offset="50%" stop-color="#1D4ED8" stop-opacity="1"/>
      <stop offset="100%" stop-color="#3B82F6" stop-opacity="0.8"/>
    </linearGradient>
  </defs>
  
  <!-- Base cube structure -->
  <polygon
    points="16,4 28,10 28,22 16,28 4,22 4,10"
    fill="none"
    stroke="#3B82F6"
    stroke-width="1.5"
    opacity="0.6"
  />
  
  <!-- Top face -->
  <polygon
    points="16,4 28,10 16,16 4,10"
    fill="#3B82F6"
    opacity="0.3"
  />
  
  <!-- Right face -->
  <polygon
    points="16,16 28,10 28,22 16,28"
    fill="#3B82F6"
    opacity="0.2"
  />
  
  <!-- Left face -->
  <polygon
    points="16,16 4,10 4,22 16,28"
    fill="#1D4ED8"
    opacity="0.25"
  />
  
  <!-- Circuit traces -->
  <g opacity="0.8">
    <path
      d="M 4 10 L 16 4 L 28 10"
      fill="none"
      stroke="url(#cubeGradient)"
      stroke-width="0.8"
      stroke-dasharray="2 2"
      stroke-linecap="round"
    />
    
    <path
      d="M 4 10 L 4 22 L 16 28"
      fill="none"
      stroke="url(#cubeGradient)"
      stroke-width="0.8"
      stroke-dasharray="2 2"
      stroke-linecap="round"
    />
    
    <path
      d="M 28 10 L 28 22 L 16 28"
      fill="none"
      stroke="url(#cubeGradient)"
      stroke-width="0.8"
      stroke-dasharray="2 2"
      stroke-linecap="round"
    />
    
    <path
      d="M 16 4 L 16 16 L 16 28"
      fill="none"
      stroke="url(#cubeGradient)"
      stroke-width="0.8"
      stroke-dasharray="1 3"
      stroke-linecap="round"
    />
  </g>
  
  <!-- Glowing nodes -->
  <g>
    <circle cx="16" cy="4" r="1.5" fill="#3B82F6" opacity="0.8"/>
    <circle cx="4" cy="10" r="1.5" fill="#1D4ED8" opacity="0.8"/>
    <circle cx="28" cy="10" r="1.5" fill="#3B82F6" opacity="0.8"/>
    <circle cx="16" cy="28" r="1.5" fill="#1D4ED8" opacity="0.8"/>
  </g>
</svg>
